<svg enable-background="new 0 0 64 64" height="512" viewBox="0 0 64 64" width="512" xmlns="http://www.w3.org/2000/svg"><g id="Icons"><g><g><path d="m34 42h4v-13.528c0-1.515-.856-2.9-2.211-3.578l-4-2c-.988-.494-1.388-1.695-.894-2.683l.658-1.317c.141-.282.211-.588.211-.895h-11.528c0 .306.07.613.211.894l.658 1.317c.494.988.094 2.189-.894 2.683l-4 2c-1.355.679-2.211 2.064-2.211 3.579v27.528c0 2.209 1.791 4 4 4h16z" fill="#fab400"/></g><g><path d="m22 8v-2c0-1.105.895-2 2-2h4c1.105 0 2 .895 2 2v2z" fill="#505050"/></g><g><path d="m26 4h-2c-1.105 0-2 .895-2 2v2h2v-2c0-1.105.895-2 2-2z" fill="#3c3c3c"/></g><g><path d="m30.211 14.422c-.139-.277-.211-.584-.211-.894v-1.528l.586-.586c.781-.781.781-2.047 0-2.828l-.586-.586h-8l-.586.586c-.781.781-.781 2.047 0 2.828l.586.586v1.528c0 .31-.072.617-.211.894l-1.342 2.683c-.141.281-.211.588-.211.894h11.528c0-.306-.07-.613-.211-.894z" fill="#f0f0f0"/></g><g><path d="m18 56v-27.528c0-1.515.856-2.9 2.211-3.578l4-2c.988-.494 1.388-1.695.894-2.683l-.658-1.317c-.141-.282-.211-.588-.211-.894h-4c0 .306.07.613.211.894l.658 1.317c.494.988.094 2.189-.894 2.683l-4 2c-1.355.678-2.211 2.063-2.211 3.578v27.528c0 2.209 1.791 4 4 4h4c-2.209 0-4-1.791-4-4z" fill="#dc9600"/></g><g><path d="m25.789 14.422c.139-.278.211-.584.211-.894v-1.528l-.586-.586c-.781-.781-.781-2.047 0-2.828l.586-.586h-4l-.586.586c-.781.781-.781 2.047 0 2.828l.586.586v1.528c0 .31-.072.617-.211.894l-1.342 2.683c-.141.281-.211.588-.211.894h4c0-.306.07-.613.211-.894z" fill="#d2d2d2"/></g><g><path d="m14 32v22h20v-12h4v-10z" fill="#505050"/></g><g><path d="m26 44c-2.209 0-4-1.791-4-4 0-2.209 1.791-4 4-4 2.209 0 4 1.791 4 4 0 2.209-1.791 4-4 4z" fill="#fa6450"/></g><g><path d="m29 48h-6c-.552 0-1-.448-1-1 0-.552.448-1 1-1h6c.552 0 1 .448 1 1 0 .552-.448 1-1 1z" fill="#f0f0f0"/></g><g><path d="m48 60h-10c-1.105 0-2-.895-2-2v-2h14v2c0 1.105-.895 2-2 2z" fill="#f0f0f0"/></g><g><path d="m36 46h14v10h-14z" fill="#fab400"/></g><g><path d="m36 44h14v2h-14z" fill="#f0f0f0"/></g><g><path d="m40 58v-2h-4v2c0 1.105.895 2 2 2h4c-1.105 0-2-.895-2-2z" fill="#d2d2d2"/></g><g><path d="m36 46h4v10h-4z" fill="#dc9600"/></g><g><path d="m36 44h4v2h-4z" fill="#d2d2d2"/></g><g><path d="m14 32h4v22h-4z" fill="#3c3c3c"/></g></g></g></svg>