<?xml version="1.0" encoding="iso-8859-1"?>
<!-- Generator: Adobe Illustrator 19.0.0, SVG Export Plug-In . SVG Version: 6.00 Build 0)  -->
<svg version="1.1" id="Layer_1" xmlns="http://www.w3.org/2000/svg" xmlns:xlink="http://www.w3.org/1999/xlink" x="0px" y="0px"
	 viewBox="0 0 512.001 512.001" style="enable-background:new 0 0 512.001 512.001;" xml:space="preserve">
<g>
	<g>
		<polygon style="fill:#2D404E;" points="256,147.304 138.8,147.304 138.8,312.866 256,312.866 373.201,312.866 373.201,147.304 		
			"/>
	</g>
	<g>
		<polygon style="fill:#253744;" points="256,147.304 138.8,147.304 138.8,168.465 256,168.465 373.201,168.465 373.201,147.304 		
			"/>
	</g>
	<g>
		<path style="fill:#2D404E;" d="M25.083,202.7L5.454,327.658c0,0-23.042,59.739,25.603,80.222
			c48.645,20.481,64.859-8.534,78.515-34.99c13.654-26.456,63.152-118.558,63.152-118.558L25.083,202.7z"/>
	</g>
	<g>
		<path style="fill:#253744;" d="M31.056,407.88c-48.645-20.482-25.603-80.222-25.603-80.222L25.082,202.7l45.452,15.895
			c0,0-35.824,90.211-48.866,120.158C3.59,380.268,31.056,407.88,31.056,407.88z"/>
	</g>
	<g>
		<path style="fill:#2D404E;" d="M143.137,120.563c-1.138-5.689-4.836-17.637-38.688-17.637s-35.557,9.103-37.833,18.206
			s-5.12,31.291-5.12,31.291h86.477C147.972,152.424,144.275,126.254,143.137,120.563z"/>
	</g>
	<g>
		<path style="fill:#253744;" d="M73.446,152.424h-11.95c0,0,2.844-22.188,5.12-31.291c1.89-7.558,3.385-15.115,23.215-17.463
			c0,0-12.231,5.23-14.168,17.747C73.725,133.935,73.446,152.424,73.446,152.424z"/>
	</g>
	<g>
		<path style="fill:#253744;" d="M143.137,120.563c-1.138-5.689-4.836-16.637-38.688-16.637s-35.557,8.103-37.833,17.206
			c0,0,2.021-12.486,9.047-18.206c7.025-5.72,19.753-5.72,29.071-5.72c9.317,0,22.759,0.316,30.013,5.72
			C142,108.331,143.137,120.563,143.137,120.563z"/>
	</g>
	<g>
		<ellipse style="fill:#253744;" cx="105.871" cy="223.374" rx="81.929" ry="81.916"/>
	</g>
	<g>
		<circle style="fill:#586A73;" cx="103.594" cy="214.183" r="79.652"/>
	</g>
	<g>
		<path style="fill:#2D404E;" d="M153.237,190.971h-28.305v-28.306c0-5.185-4.203-9.388-9.388-9.388H91.648
			c-5.185,0-9.388,4.203-9.388,9.388v28.306H53.955c-5.186,0-9.388,4.202-9.388,9.388v23.896c0,5.184,4.202,9.388,9.388,9.388H82.26
			v28.304c0,5.186,4.203,9.388,9.388,9.388h23.896c5.185,0,9.388-4.202,9.388-9.388v-28.304h28.305c5.186,0,9.388-4.204,9.388-9.388
			v-23.896C162.625,195.173,158.422,190.971,153.237,190.971z"/>
	</g>
	<g>
		<path style="fill:#2D404E;" d="M486.918,202.7l19.629,124.958c0,0,23.042,59.739-25.603,80.222
			c-48.645,20.481-64.859-8.534-78.515-34.99c-13.654-26.456-63.152-118.558-63.152-118.558L486.918,202.7z"/>
	</g>
	<g>
		<path style="fill:#253744;" d="M480.945,407.88c48.645-20.482,25.603-80.222,25.603-80.222L486.918,202.7l-45.452,15.895
			c0,0,35.824,90.211,48.866,120.158C508.411,380.268,480.945,407.88,480.945,407.88z"/>
	</g>
	<g>
		<path style="fill:#2D404E;" d="M368.864,120.563c1.138-5.689,4.836-17.637,38.688-17.637s35.557,9.103,37.833,18.206
			c2.276,9.103,5.12,31.291,5.12,31.291h-86.477C364.029,152.424,367.726,126.254,368.864,120.563z"/>
	</g>
	<g>
		<path style="fill:#253744;" d="M438.555,152.424h11.95c0,0-2.844-22.188-5.12-31.291c-1.89-7.558-3.385-15.115-23.215-17.463
			c0,0,12.231,5.23,14.168,17.747C438.276,133.935,438.555,152.424,438.555,152.424z"/>
	</g>
	<g>
		<path style="fill:#253744;" d="M368.864,120.563c1.138-5.689,4.836-16.637,38.688-16.637s35.557,8.103,37.833,17.206
			c0,0-2.021-12.486-9.047-18.206c-7.025-5.72-19.753-5.72-29.071-5.72c-9.317,0-22.759,0.316-30.013,5.72
			C370,108.331,368.864,120.563,368.864,120.563z"/>
	</g>
	<g>
		<ellipse style="fill:#253744;" cx="405.492" cy="223.374" rx="82.567" ry="81.916"/>
	</g>
	<g>
		<circle style="fill:#586A73;" cx="408.407" cy="214.183" r="79.652"/>
	</g>
	<g>
		<path style="fill:#2D404E;" d="M458.044,190.971h-28.305v-28.306c0-5.185-4.203-9.388-9.388-9.388h-23.896
			c-5.185,0-9.388,4.203-9.388,9.388v28.306h-28.305c-5.186,0-9.388,4.202-9.388,9.388v23.896c0,5.184,4.202,9.388,9.388,9.388
			h28.305v28.304c0,5.186,4.203,9.388,9.388,9.388h23.896c5.185,0,9.388-4.202,9.388-9.388v-28.304h28.305
			c5.186,0,9.387-4.204,9.387-9.388v-23.896C467.431,195.173,463.23,190.971,458.044,190.971z"/>
	</g>
	<g>
		<polygon style="fill:#586A73;" points="103.596,160.282 107.265,164.375 110.935,168.465 103.596,168.465 96.258,168.465 
			99.928,164.375 		"/>
	</g>
	<g>
		<polygon style="fill:#586A73;" points="103.596,268.083 107.265,263.991 110.935,259.9 103.596,259.9 96.258,259.9 
			99.928,263.991 		"/>
	</g>
	<g>
		<path style="fill:#253744;" d="M91.651,192.393c0,0-0.278,3.73,1.748,6.185c2.027,2.453,8.011,8.268,10.197,8.268
			c2.134,0,8.776-6.411,10.337-8.268c1.614-1.92,1.609-6.185,1.609-6.185H91.651z"/>
	</g>
	<g>
		<polygon style="fill:#586A73;" points="157.497,214.183 153.405,217.852 149.314,221.522 149.314,214.183 149.314,206.845 
			153.405,210.514 		"/>
	</g>
	<g>
		<path style="fill:#253744;" d="M93.967,214.183c0,0-0.576,3.172-2.461,5.945c-1.885,2.774-5.561,8.321-8.014,8.321
			c-2.454,0-16.06,0-17.659,0c-1.601,0-2.666-2.827-2.666-4.027S93.967,214.183,93.967,214.183z"/>
	</g>
	<g>
		<path style="fill:#253744;" d="M113.222,214.183c0,0,0.577,4.154,2.462,6.928c1.884,2.773,6.154,7.339,8.608,7.339
			c2.453,0,15.464,0,17.064,0s2.665-2.827,2.665-4.027S113.222,214.183,113.222,214.183z"/>
	</g>
	<g>
		<path style="fill:#253744;" d="M91.651,252.905c0,0-0.201,3.707,2.316,3.707s17.808,0,19.515,0s2.061-3.707,2.061-3.707H91.651
			L91.651,252.905z"/>
	</g>
	<g>
		<g>
			<circle style="fill:#253744;" cx="407.665" cy="178.451" r="17.942"/>
		</g>
		<g>
			<circle style="fill:#D1D5D5;" cx="409.143" cy="176.364" r="16.624"/>
		</g>
	</g>
	<g>
		<g>
			<circle style="fill:#253744;" cx="407.36" cy="250.378" r="17.942"/>
		</g>
		<g>
			<circle style="fill:#D1D5D5;" cx="409" cy="249.349" r="17.071"/>
		</g>
	</g>
	<g>
		<g>
			<circle style="fill:#253744;" cx="443.781" cy="214.566" r="17.942"/>
		</g>
		<g>
			<path style="fill:#D1D5D5;" d="M461.882,212.794c0,9.357-7.584,16.942-16.939,16.942c-9.355,0-16.94-7.585-16.94-16.942
				c0-9.354,7.585-16.939,16.94-16.939C454.298,195.855,461.882,203.44,461.882,212.794z"/>
		</g>
	</g>
	<g>
		<g>
			<circle style="fill:#253744;" cx="371.412" cy="214.51" r="17.942"/>
		</g>
		<g>
			<circle style="fill:#D1D5D5;" cx="372.424" cy="212.453" r="16.781"/>
		</g>
	</g>
	<g>
		<path style="fill:#253744;" d="M222.65,227.976c0,1.309-0.927,2.37-2.07,2.37h-23.465c-1.144,0-2.07-1.062-2.07-2.37v-9.581
			c0-1.309,0.927-2.37,2.07-2.37h23.465c1.144,0,2.07,1.062,2.07,2.37V227.976z"/>
	</g>
	<g>
		<path style="fill:#586A73;" d="M220.226,227.135c0,1.078-0.764,1.953-1.707,1.953h-19.344c-0.943,0-1.707-0.875-1.707-1.953
			v-7.899c0-1.078,0.764-1.953,1.707-1.953h19.344c0.943,0,1.707,0.875,1.707,1.953V227.135z"/>
	</g>
	<g>
		<g>
			<path style="fill:#253744;" d="M308.753,223.537c0,1.233-10.643,4.804-10.643,4.804l-10.148,3.948c0,0-1.208,0.457-1.76-0.033
				c-0.73-0.651-0.437-2.237-0.437-2.237v-6.481v-6.574c0,0-0.242-1.303,0.788-1.937c0.973-0.597,1.845-0.075,1.845-0.075
				l9.712,3.778C298.111,218.73,308.753,222.3,308.753,223.537z"/>
		</g>
		<g>
			<path style="fill:#586A73;" d="M305.969,223.558c0,0.893-8.675,3.475-8.675,3.475l-7.777,2.856c0,0-0.927,0.331-1.349-0.024
				c-0.56-0.471-0.335-1.618-0.335-1.618v-4.688v-4.756c0,0-0.186-0.941,0.604-1.399c0.745-0.432,1.413-0.055,1.413-0.055
				l7.443,2.733C297.294,220.081,305.969,222.663,305.969,223.558z"/>
		</g>
	</g>
	<g>
		<circle style="fill:#253744;" cx="257.958" cy="259.739" r="18.242"/>
	</g>
	<g>
		<circle style="fill:#586A73;" cx="257.958" cy="259.739" r="15.042"/>
	</g>
	<g>
		<path style="fill:#C6CBCB;" d="M282.94,209.041c0.433,0.255,1.109,0.478,1.808,0.478c0.866,0,1.354-0.411,1.354-1.021
			c0-0.565-0.378-0.898-1.321-1.242c-1.242-0.444-2.03-1.099-2.03-2.175c0-1.231,1.021-2.152,2.652-2.152
			c0.81,0,1.397,0.178,1.786,0.377l-0.322,1.099c-0.277-0.145-0.799-0.354-1.498-0.354c-0.864,0-1.231,0.454-1.231,0.898
			c0,0.576,0.434,0.843,1.432,1.231c1.298,0.487,1.92,1.143,1.92,2.219c0,1.209-0.91,2.252-2.83,2.252
			c-0.798,0-1.62-0.222-2.03-0.477L282.94,209.041z"/>
		<path style="fill:#C6CBCB;" d="M290.151,204.192h-2.13v-1.144h5.647v1.144h-2.153v6.335h-1.364L290.151,204.192L290.151,204.192z"
			/>
		<path style="fill:#C6CBCB;" d="M295.232,208.408l-0.644,2.119h-1.408l2.396-7.479h1.742l2.43,7.479h-1.476l-0.677-2.119H295.232z
			 M297.374,207.376l-0.588-1.842c-0.145-0.454-0.267-0.965-0.377-1.397h-0.022c-0.111,0.433-0.233,0.954-0.355,1.397l-0.576,1.842
			H297.374z"/>
		<path style="fill:#C6CBCB;" d="M300.79,203.16c0.522-0.1,1.276-0.166,2.063-0.166c1.077,0,1.798,0.178,2.308,0.6
			c0.411,0.343,0.644,0.865,0.644,1.508c0,0.966-0.654,1.62-1.364,1.864V207c0.544,0.199,0.865,0.721,1.043,1.441
			c0.244,0.933,0.444,1.798,0.588,2.086h-1.397c-0.111-0.222-0.3-0.832-0.499-1.765c-0.223-0.976-0.565-1.286-1.343-1.309h-0.688
			v3.073h-1.354v-7.366L300.79,203.16L300.79,203.16z M302.143,206.455h0.811c0.921,0,1.486-0.487,1.486-1.23
			c0-0.811-0.565-1.198-1.453-1.198c-0.433,0-0.71,0.033-0.844,0.066V206.455z"/>
		<path style="fill:#C6CBCB;" d="M308.589,204.192h-2.13v-1.144h5.647v1.144h-2.153v6.335h-1.364L308.589,204.192L308.589,204.192z"
			/>
	</g>
	<g>
		<path style="fill:#C6CBCB;" d="M193.332,209.041c0.432,0.255,1.109,0.478,1.808,0.478c0.865,0,1.354-0.411,1.354-1.021
			c0-0.565-0.377-0.898-1.32-1.242c-1.243-0.444-2.03-1.099-2.03-2.175c0-1.231,1.021-2.152,2.651-2.152
			c0.811,0,1.398,0.178,1.786,0.377l-0.321,1.099c-0.277-0.145-0.799-0.354-1.498-0.354c-0.865,0-1.231,0.454-1.231,0.898
			c0,0.576,0.434,0.843,1.432,1.231c1.298,0.487,1.92,1.143,1.92,2.219c0,1.209-0.91,2.252-2.83,2.252
			c-0.798,0-1.62-0.222-2.03-0.477L193.332,209.041z"/>
		<path style="fill:#C6CBCB;" d="M203.293,207.211h-2.817v2.195h3.15v1.121h-4.516v-7.479h4.35v1.121h-2.984v1.931h2.817V207.211z"
			/>
		<path style="fill:#C6CBCB;" d="M204.825,203.049h1.365v6.336h3.073v1.143h-4.438V203.049z"/>
		<path style="fill:#C6CBCB;" d="M214.476,207.211h-2.817v2.195h3.15v1.121h-4.516v-7.479h4.35v1.121h-2.984v1.931h2.817V207.211z"
			/>
		<path style="fill:#C6CBCB;" d="M221.367,210.316c-0.322,0.155-1.032,0.333-1.942,0.333c-2.373,0-3.816-1.486-3.816-3.772
			c0-2.463,1.72-3.949,4.006-3.949c0.898,0,1.531,0.188,1.809,0.332l-0.288,1.088c-0.355-0.155-0.854-0.288-1.466-0.288
			c-1.52,0-2.617,0.954-2.617,2.751c0,1.653,0.953,2.696,2.606,2.696c0.543,0,1.121-0.111,1.487-0.267L221.367,210.316z"/>
		<path style="fill:#C6CBCB;" d="M224.185,204.192h-2.131v-1.144h5.647v1.144h-2.152v6.335h-1.364L224.185,204.192L224.185,204.192z
			"/>
	</g>
	<g>
		<path style="fill:#D1D5D5;" d="M115.542,192.926v-17.465c0-0.943-0.765-1.707-1.706-1.707H93.357
			c-0.941,0-1.706,0.764-1.706,1.707v17.465c0,0-0.036,0.165,0,0.464v0.283c0,0.524,0.243,0.989,0.616,1.302
			c0.271,0.437,0.653,0.93,1.195,1.472c2.134,2.134,7.254,8.107,10.134,8.107c2.881,0,8.001-5.974,10.135-8.107
			c0.542-0.542,0.925-1.035,1.195-1.472c0.373-0.312,0.616-0.777,0.616-1.302v-0.283
			C115.579,193.091,115.542,192.926,115.542,192.926z"/>
	</g>
	<g>
		<path style="fill:#D1D5D5;" d="M82.339,226.129H64.874c-0.943,0-1.707-0.765-1.707-1.707v-20.479c0-0.941,0.764-1.707,1.707-1.707
			h17.465c0,0,0.165-0.035,0.465,0h0.282c0.525,0,0.99,0.244,1.303,0.617c0.436,0.27,0.929,0.653,1.471,1.195
			c2.134,2.133,8.107,7.254,8.107,10.134c0,2.881-5.974,8.001-8.107,10.135c-0.542,0.541-1.035,0.925-1.471,1.194
			c-0.312,0.374-0.777,0.617-1.303,0.617h-0.282C82.504,226.165,82.339,226.129,82.339,226.129z"/>
	</g>
	<g>
		<polygon style="fill:#586A73;" points="49.697,214.183 53.789,217.852 57.879,221.522 57.879,214.183 57.879,206.845 
			53.789,210.514 		"/>
	</g>
	<g>
		<path style="fill:#D1D5D5;" d="M124.854,226.129h17.465c0.943,0,1.707-0.765,1.707-1.707v-20.479c0-0.941-0.764-1.707-1.707-1.707
			h-17.465c0,0-0.165-0.035-0.465,0h-0.282c-0.525,0-0.99,0.244-1.303,0.617c-0.436,0.27-0.929,0.653-1.471,1.195
			c-2.134,2.133-8.107,7.254-8.107,10.134c0,2.881,5.974,8.001,8.107,10.135c0.542,0.541,1.035,0.925,1.471,1.194
			c0.312,0.374,0.777,0.617,1.303,0.617h0.282C124.689,226.165,124.854,226.129,124.854,226.129z"/>
	</g>
	<g>
		<path style="fill:#D1D5D5;" d="M115.542,235.439v17.466c0,0.943-0.765,1.706-1.706,1.706H93.357c-0.941,0-1.706-0.763-1.706-1.706
			v-17.466c0,0-0.036-0.165,0-0.464v-0.282c0-0.525,0.243-0.99,0.616-1.303c0.271-0.436,0.653-0.93,1.195-1.471
			c2.134-2.134,7.254-8.107,10.134-8.107c2.881,0,8.001,5.974,10.135,8.107c0.542,0.541,0.925,1.035,1.195,1.471
			c0.373,0.312,0.616,0.777,0.616,1.303v0.282C115.579,235.274,115.542,235.439,115.542,235.439z"/>
	</g>
	<g>
		<path style="fill:#DF584C;" d="M444.943,222.991c-5.622,0-10.197-4.574-10.197-10.197c0-5.622,4.575-10.194,10.197-10.194
			s10.196,4.572,10.196,10.194C455.139,218.417,450.565,222.991,444.943,222.991z M444.943,204.953
			c-4.324,0-7.843,3.518-7.843,7.841c0,4.325,3.519,7.843,7.843,7.843s7.842-3.518,7.842-7.843
			C452.785,208.471,449.267,204.953,444.943,204.953z"/>
	</g>
	<g>
		<path style="fill:#48B19B;" d="M419.404,183.139h-20.976l10.487-18.165L419.404,183.139z M402.275,180.918h13.281l-6.641-11.502
			L402.275,180.918z"/>
	</g>
	<g>
		<path style="fill:#EA8EBC;" d="M377.922,221.097h-11.3c-1.423,0-2.581-1.158-2.581-2.581v-11.3c0-1.423,1.158-2.581,2.581-2.581
			h11.3c1.423,0,2.581,1.158,2.581,2.581v11.3C380.503,219.939,379.345,221.097,377.922,221.097z M366.623,206.847
			c-0.202,0-0.368,0.166-0.368,0.369v11.3c0,0.202,0.166,0.368,0.368,0.368h11.3c0.202,0,0.368-0.166,0.368-0.368v-11.3
			c0-0.203-0.166-0.369-0.368-0.369H366.623z"/>
	</g>
	<g>
		<path style="fill:#253744;" d="M118.244,295.225c0,0,4.423,18.884,17.131,28.861l11.118-20.816l-3.462-15.623L118.244,295.225z"/>
	</g>
	<g>
		<path style="fill:#253744;" d="M393.757,295.225c0,0-4.423,18.884-17.131,28.861l-11.118-20.816l3.462-15.623L393.757,295.225z"/>
	</g>
	<g>
		<path style="fill:#253744;" d="M127.149,291.293c25.26-7.808,46.145-28.847,53.747-54.196c-6.605,0.018-20.32,1.947-34.403,14.039
			C131.525,263.986,127.969,282.506,127.149,291.293z"/>
	</g>
	<g>
		<path style="fill:#253744;" d="M384.852,291.293c-25.26-7.808-46.145-28.847-53.747-54.196c6.605,0.018,20.32,1.947,34.403,14.039
			C380.476,263.986,384.032,282.506,384.852,291.293z"/>
	</g>
	<g>
		<g>
			<circle style="fill:#586A73;" cx="182.077" cy="292.987" r="50.104"/>
		</g>
		<g>
			<circle style="fill:#253744;" cx="182.076" cy="292.987" r="40.134"/>
		</g>
		<g>
			<circle style="fill:#2D404E;" cx="182.076" cy="292.987" r="33.108"/>
		</g>
	</g>
	<g>
		<g>
			<circle style="fill:#586A73;" cx="329.924" cy="292.987" r="50.104"/>
		</g>
		<g>
			<circle style="fill:#253744;" cx="329.925" cy="292.987" r="40.134"/>
		</g>
		<g>
			<circle style="fill:#2D404E;" cx="329.925" cy="292.987" r="33.108"/>
		</g>
	</g>
	<polygon style="fill:#586A73;" points="416.463,244.7 414.342,242.579 408.744,248.178 403.145,242.579 401.024,244.7 
		406.623,250.299 401.024,255.897 403.145,258.019 408.744,252.42 414.342,258.019 416.463,255.897 410.865,250.299 	"/>
</g>
<g>
</g>
<g>
</g>
<g>
</g>
<g>
</g>
<g>
</g>
<g>
</g>
<g>
</g>
<g>
</g>
<g>
</g>
<g>
</g>
<g>
</g>
<g>
</g>
<g>
</g>
<g>
</g>
<g>
</g>
</svg>
