<?xml version="1.0" encoding="iso-8859-1"?>
<!-- Generator: Adobe Illustrator 19.0.0, SVG Export Plug-In . SVG Version: 6.00 Build 0)  -->
<svg version="1.1" id="Layer_1" xmlns="http://www.w3.org/2000/svg" xmlns:xlink="http://www.w3.org/1999/xlink" x="0px" y="0px"
	 viewBox="0 0 468.116 468.116" style="enable-background:new 0 0 468.116 468.116;" xml:space="preserve">
<g>
	<path style="fill:#D1D5D5;" d="M38.058,125.875c0,0,18.23-3.512,31.532,16.328c0,0-18.532,37.172-18.532,75.672s16.5,69,16.5,69
		l49,168c0,0-1,2.833-12,7.833s-17,6-24,2s-32-23.666-40.667-54s-13.667-47.333-14.333-88c0,0-14.333-38.999-14.667-66.333
		c-0.333-27.333,0.333-52.333,6.333-75.333S38.058,125.875,38.058,125.875z"/>
	<path style="fill:#C6CBCB;" d="M38.058,125.875c0,0,6.835,1.392,12.239,3.99c0,0-27.009,44.991-30.239,94.51
		c-3,46,8.227,66.665,16.197,85.999s2.803,31.001,3.303,46.501s7.765,53.5,24.132,76.5s36.456,31.221,36.456,31.221
		s-11.175,5.507-18.268,0.812s-33.632-23.428-41.986-54.699s-12.377-42.662-13.355-65.331s-2.138-20.663-7.595-43.47
		s-9.855-42.533-8.119-82.533S38.058,125.875,38.058,125.875z"/>
	<path style="fill:#253744;" d="M104.558,462.708c11-5,12-7.833,12-7.833l-46.22-158.47c0,0-6.28,3.47-10.28,5.97s-10,13-10,29
		s-0.5,32.5,11.5,65S104.558,462.708,104.558,462.708z"/>
	<path style="fill:#2D404E;" d="M116.558,454.875c0,0-1,2.833-12,7.833c0,0-31-33.833-43-66.333s-11.5-49-11.5-65s6-26.5,10-29
		s10.28-5.97,10.28-5.97s-12.515,5.97-6.648,49.97s25.659,75.643,33.72,87.754C107.558,449.375,116.558,454.875,116.558,454.875z"/>
	<path style="fill:#2D404E;" d="M89.558,260.375c0,0-6.251,4.5-6.251,31s8.251,62,14.251,82s31,84.666,59,89.333
		c0,0-18,10.332-31-2.001s-30.334-40.333-44.5-77.333s-14.5-75.332-13.833-89.666s2.333-21.667,6.333-25.334
		S85.224,261.376,89.558,260.375z"/>
	<path style="fill:#253744;" d="M89.558,260.375c0,0-8.5,3.5-8.5,30s9.167,65,15.167,85s32.333,82.666,60.333,87.333
		c0,0,9.25-5.333,9-13.333s-59.965-185.18-59.965-185.18S102.058,258.375,89.558,260.375z"/>
	<path style="fill:#DF584C;" d="M144.152,466.584c-5.8,0.645-12.709-0.294-18.594-5.877c-13-12.333-30.334-40.333-44.5-77.333
		s-14.5-75.332-13.833-89.666s2.333-21.667,6.333-25.334c1.629-1.493,3.867-2.931,6.239-4.179c0,0-6.904,3.512-7.238,26.179
		s5.16,59.668,10.747,79.001s24.253,58.333,29.92,67.333s15.173,21.977,22.082,26S144.152,466.584,144.152,466.584z"/>
	<path style="fill:#DF584C;" d="M90.891,268.708c5.334-8.687,8.958-11.847,18.333-15.001c12.667-4.262,20-6.665,33.334,4.335
		c13.334,11,31.667,53,41.667,83s17.667,72,16,83.333s-5.667,19.666-16.667,25.333s-22.667,7.334-29,4.667
		s-33.263-26.97-48.965-74.818S83.559,289.709,90.891,268.708z"/>
	<path style="fill:#B9483E;" d="M194.481,440.551c3.169-4.504,4.817-9.876,5.744-16.176c1.667-11.333-6-53.333-16-83.333
		s-28.333-72-41.667-83c0,0-7.334-4.666-12.001,0c-4.667,4.666-0.667,33.333,3,49.666s14,49.334,20,65.667
		s23.667,52.999,31.333,62.666S194.481,440.551,194.481,440.551z"/>
	<path style="fill:#253744;" d="M160.224,296.589c6.667,8.786,17,37.452,22,54.119s11,45.666,4,51.333s-22.999-33.523-29.666-53.095
		s-17.211-60.962-8.667-64.905C152.224,282.041,160.224,296.589,160.224,296.589z"/>
	<path style="fill:#D1D5D5;" d="M430.058,125.875c0,0-18.23-3.512-31.531,16.328c0,0,18.531,37.172,18.531,75.672s-16.5,69-16.5,69
		l-49,168c0,0,1,2.833,12,7.833s17,6,24,2s31.999-23.666,40.666-54s13.666-47.333,14.333-88c0,0,14.333-38.999,14.667-66.333
		c0.332-27.333-0.334-52.333-6.334-75.333S430.058,125.875,430.058,125.875z"/>
	<path style="fill:#C6CBCB;" d="M430.058,125.875c0,0-6.836,1.392-12.238,3.99c0,0,27.009,44.991,30.238,94.51
		c3,46-8.227,66.665-16.197,85.999c-7.969,19.334-2.803,31.001-3.303,46.501s-7.765,53.5-24.133,76.5
		c-16.367,23-36.455,31.221-36.455,31.221s11.176,5.507,18.268,0.812c7.094-4.695,33.633-23.428,41.986-54.699
		s12.377-42.662,13.355-65.331s2.137-20.663,7.595-43.47s9.855-42.533,8.119-82.533S430.058,125.875,430.058,125.875z"/>
	<path style="fill:#253744;" d="M363.558,462.708c-11-5-12-7.833-12-7.833l46.221-158.47c0,0,6.279,3.47,10.279,5.97s10,13,10,29
		s0.5,32.5-11.5,65S363.558,462.708,363.558,462.708z"/>
	<path style="fill:#2D404E;" d="M351.558,454.875c0,0,1,2.833,12,7.833c0,0,31-33.833,43-66.333s11.5-49,11.5-65s-6-26.5-10-29
		s-10.279-5.97-10.279-5.97s12.515,5.97,6.646,49.97c-5.867,44-25.658,75.643-33.72,87.754
		C360.558,449.375,351.558,454.875,351.558,454.875z"/>
	<path style="fill:#2D404E;" d="M378.558,260.375c0,0,6.252,4.5,6.252,31s-8.252,62-14.252,82s-31,84.666-59,89.333
		c0,0,18,10.332,31-2.001s30.334-40.333,44.5-77.333s14.5-75.332,13.833-89.666s-2.333-21.667-6.333-25.334
		S382.892,261.376,378.558,260.375z"/>
	<path style="fill:#253744;" d="M378.558,260.375c0,0,8.5,3.5,8.5,30s-9.166,65-15.166,85s-32.334,82.666-60.334,87.333
		c0,0-9.25-5.333-9-13.333s59.965-185.18,59.965-185.18S366.058,258.375,378.558,260.375z"/>
	<path style="fill:#DF584C;" d="M323.964,466.584c5.801,0.645,12.709-0.294,18.594-5.877c13-12.333,30.334-40.333,44.5-77.333
		s14.5-75.332,13.833-89.666s-2.333-21.667-6.333-25.334c-1.63-1.493-3.867-2.931-6.24-4.179c0,0,6.904,3.512,7.238,26.179
		s-5.16,59.668-10.746,79.001c-5.588,19.333-24.254,58.333-29.92,67.333c-5.668,9-15.174,21.977-22.082,26
		S323.964,466.584,323.964,466.584z"/>
	<path style="fill:#DF584C;" d="M377.224,268.708c-5.334-8.687-8.957-11.847-18.332-15.001c-12.667-4.262-20-6.665-33.334,4.335
		c-13.334,11-31.667,53-41.667,83s-17.667,72-16,83.333s5.667,19.666,16.667,25.333s22.667,7.334,29,4.667
		s33.264-26.97,48.965-74.818S384.557,289.709,377.224,268.708z"/>
	<path style="fill:#B9483E;" d="M273.634,440.551c-3.169-4.504-4.816-9.876-5.743-16.176c-1.667-11.333,6-53.333,16-83.333
		s28.333-72,41.667-83c0,0,7.334-4.666,12.001,0c4.667,4.666,0.667,33.333-3,49.666s-14,49.334-20,65.667
		s-23.667,52.999-31.333,62.666C275.559,445.708,273.634,440.551,273.634,440.551z"/>
	<path style="fill:#253744;" d="M307.892,296.589c-6.666,8.786-17,37.452-22,54.119s-11,45.666-4,51.333
		s22.998-33.523,29.666-53.095s17.211-60.962,8.668-64.905C315.892,282.041,307.892,296.589,307.892,296.589z"/>
	<path style="fill:#586A73;" d="M352.558,43.375c0,0-45.582-32.198-118-39.398V3.875c-0.167,0.016-0.333,0.035-0.5,0.051
		c-0.167-0.016-0.333-0.035-0.5-0.051v0.102c-72.417,7.2-118,39.398-118,39.398c-45.5,26.5-77.5,82.5-77.5,82.5s5,1,13.5,4.5
		s16.667,12,16.667,12s11.515,0.095,40.537-24.09s29.989-48.37,59.979-63.848c27.946-14.424,60.949-16.246,65.318-16.427
		c4.369,0.182,37.372,2.003,65.318,16.427c29.989,15.479,30.957,39.663,59.979,63.848s40.536,24.09,40.536,24.09
		s8.166-8.5,16.666-12s13.5-4.5,13.5-4.5S398.058,69.875,352.558,43.375z"/>
	<path style="fill:#253744;" d="M463.687,231.875c0,0,3.371-47.5-26.129-103.5s-75-89-111-106C293.361,6.698,258.962,0,234.058,0
		c-21.589,0-59.302,6.698-92.5,22.375c-36,17-81.5,50-111,106s-26.129,103.5-26.129,103.5l2.071,1.346l0.39,4.56l-2.332,1.594
		c2,45,11,67.666,13,74.666s4.667,21.668,5,36.001s1.333,38.667,15.333,68s30.667,43.334,39.333,48s16,0,16,0
		c-11.333-0.083-18.751-5.993-27.417-16.167s-16.916-25.168-24.583-45.835s-12.666-51.334-12.332-59.001s-0.334-23.666-2.334-31.332
		s-11.717-30.125-13-54s-1.383-53.81,8.667-87.999s24.333-53.666,41.465-75.333s48.535-53.667,94.201-72
		c40.932-16.433,75.848-15.019,76.167-15.044c0.319,0.025,35.234-1.389,76.166,15.044c45.667,18.333,77.069,50.333,94.201,72
		c17.133,21.667,31.417,41.144,41.467,75.333c10.049,34.189,9.949,64.124,8.666,87.999s-11,46.334-13,54s-2.668,23.665-2.334,31.332
		s-4.666,38.334-12.333,59.001s-15.917,35.661-24.583,45.835s-16.083,16.084-27.416,16.167c0,0,7.333,4.666,16,0
		c8.666-4.666,25.332-18.667,39.332-48s15-53.667,15.334-68s3-29.001,5-36.001s11-29.666,13-74.666l-2.332-1.595l0.39-4.56
		L463.687,231.875z"/>
</g>
<g>
</g>
<g>
</g>
<g>
</g>
<g>
</g>
<g>
</g>
<g>
</g>
<g>
</g>
<g>
</g>
<g>
</g>
<g>
</g>
<g>
</g>
<g>
</g>
<g>
</g>
<g>
</g>
<g>
</g>
</svg>
