<svg id="Capa_1" enable-background="new 0 0 512 512" height="512" viewBox="0 0 512 512" width="512" xmlns="http://www.w3.org/2000/svg"><g><path d="m480 378.302h-448v-283.302c0-8.284 6.716-15 15-15h418c8.284 0 15 6.716 15 15z" fill="#356487"/><path d="m79.453 80h-32.453c-8.284 0-15 6.716-15 15v283.302h32v-282.849c0-8.534 6.919-15.453 15.453-15.453z" fill="#20526b"/><path d="m448 378.302h-384v-259.302c0-3.866 3.134-7 7-7h370c3.866 0 7 3.134 7 7z" fill="#01d0fb"/><path d="m64 119v259.302h20.604v-266.302h-13.604c-3.866 0-7 3.134-7 7z" fill="#08a9f1"/><circle cx="256" cy="240.021" fill="#ea4959" r="64"/><path d="m240 221.1v37.841c0 5.591 6.231 8.926 10.883 5.824l28.381-18.92c4.156-2.771 4.156-8.878 0-11.649l-28.381-18.92c-4.652-3.101-10.883.233-10.883 5.824z" fill="#f5fcff"/><path d="m482 432h-452c-16.569 0-30-13.431-30-30v-27c0-3.866 3.134-7 7-7h153l32.146 10.302h127.833l32.021-10.302h153c3.866 0 7 3.134 7 7v27c0 16.569-13.431 30-30 30z" fill="#618baa"/><path d="m20.604 401.094v-33.094h-13.604c-3.866 0-7 3.134-7 7v27c0 16.569 13.431 30 30 30h21.51c-17.069 0-30.906-13.837-30.906-30.906z" fill="#4e7693"/><path d="m352 368h-192l29.95 29.95c1.313 1.313 3.093 2.05 4.95 2.05h122.201c1.857 0 3.637-.737 4.95-2.05z" fill="#356487"/></g></svg>